<svg id="Layer_1" data-name="Layer 1" xmlns="http://www.w3.org/2000/svg" viewBox="0 0 8088.12 420.07"><line x1="5" x2="5" y2="420.07" style="fill:none;stroke:#000;stroke-miterlimit:10;stroke-width:10px"/><line x1="45.39" x2="45.39" y2="210.35" style="fill:none;stroke:#000;stroke-miterlimit:10;stroke-width:10px"/><line x1="85.78" x2="85.78" y2="210.35" style="fill:none;stroke:#000;stroke-miterlimit:10;stroke-width:10px"/><line x1="126.17" x2="126.17" y2="210.35" style="fill:none;stroke:#000;stroke-miterlimit:10;stroke-width:10px"/><line x1="166.56" x2="166.56" y2="210.35" style="fill:none;stroke:#000;stroke-miterlimit:10;stroke-width:10px"/><line x1="206.95" x2="206.95" y2="343.06" style="fill:none;stroke:#000;stroke-miterlimit:10;stroke-width:10px"/><line x1="247.34" x2="247.34" y2="210.35" style="fill:none;stroke:#000;stroke-miterlimit:10;stroke-width:10px"/><line x1="287.73" x2="287.73" y2="210.35" style="fill:none;stroke:#000;stroke-miterlimit:10;stroke-width:10px"/><line x1="328.12" x2="328.12" y2="210.35" style="fill:none;stroke:#000;stroke-miterlimit:10;stroke-width:10px"/><line x1="368.52" x2="368.52" y2="210.35" style="fill:none;stroke:#000;stroke-miterlimit:10;stroke-width:10px"/><line x1="408.91" x2="408.91" y2="420.07" style="fill:none;stroke:#000;stroke-miterlimit:10;stroke-width:10px"/><line x1="449.3" x2="449.3" y2="210.35" style="fill:none;stroke:#000;stroke-miterlimit:10;stroke-width:10px"/><line x1="489.69" x2="489.69" y2="210.35" style="fill:none;stroke:#000;stroke-miterlimit:10;stroke-width:10px"/><line x1="530.08" x2="530.08" y2="210.35" style="fill:none;stroke:#000;stroke-miterlimit:10;stroke-width:10px"/><line x1="570.47" x2="570.47" y2="210.35" style="fill:none;stroke:#000;stroke-miterlimit:10;stroke-width:10px"/><line x1="610.86" x2="610.86" y2="343.06" style="fill:none;stroke:#000;stroke-miterlimit:10;stroke-width:10px"/><line x1="651.25" x2="651.25" y2="210.35" style="fill:none;stroke:#000;stroke-miterlimit:10;stroke-width:10px"/><line x1="691.64" x2="691.64" y2="210.35" style="fill:none;stroke:#000;stroke-miterlimit:10;stroke-width:10px"/><line x1="732.03" x2="732.03" y2="210.35" style="fill:none;stroke:#000;stroke-miterlimit:10;stroke-width:10px"/><line x1="772.42" x2="772.42" y2="210.35" style="fill:none;stroke:#000;stroke-miterlimit:10;stroke-width:10px"/><line x1="812.81" x2="812.81" y2="420.07" style="fill:none;stroke:#000;stroke-miterlimit:10;stroke-width:10px"/><line x1="853.2" x2="853.2" y2="210.35" style="fill:none;stroke:#000;stroke-miterlimit:10;stroke-width:10px"/><line x1="893.59" x2="893.59" y2="210.35" style="fill:none;stroke:#000;stroke-miterlimit:10;stroke-width:10px"/><line x1="933.98" x2="933.98" y2="210.35" style="fill:none;stroke:#000;stroke-miterlimit:10;stroke-width:10px"/><line x1="974.37" x2="974.37" y2="210.35" style="fill:none;stroke:#000;stroke-miterlimit:10;stroke-width:10px"/><line x1="1014.76" x2="1014.76" y2="343.06" style="fill:none;stroke:#000;stroke-miterlimit:10;stroke-width:10px"/><line x1="1055.16" x2="1055.16" y2="210.35" style="fill:none;stroke:#000;stroke-miterlimit:10;stroke-width:10px"/><line x1="1095.55" x2="1095.55" y2="210.35" style="fill:none;stroke:#000;stroke-miterlimit:10;stroke-width:10px"/><line x1="1135.94" x2="1135.94" y2="210.35" style="fill:none;stroke:#000;stroke-miterlimit:10;stroke-width:10px"/><line x1="1176.33" x2="1176.33" y2="210.35" style="fill:none;stroke:#000;stroke-miterlimit:10;stroke-width:10px"/><line x1="1216.72" x2="1216.72" y2="420.07" style="fill:none;stroke:#000;stroke-miterlimit:10;stroke-width:10px"/><line x1="1257.11" x2="1257.11" y2="210.35" style="fill:none;stroke:#000;stroke-miterlimit:10;stroke-width:10px"/><line x1="1297.5" x2="1297.5" y2="210.35" style="fill:none;stroke:#000;stroke-miterlimit:10;stroke-width:10px"/><line x1="1337.89" x2="1337.89" y2="210.35" style="fill:none;stroke:#000;stroke-miterlimit:10;stroke-width:10px"/><line x1="1378.28" x2="1378.28" y2="210.35" style="fill:none;stroke:#000;stroke-miterlimit:10;stroke-width:10px"/><line x1="1418.67" x2="1418.67" y2="343.06" style="fill:none;stroke:#000;stroke-miterlimit:10;stroke-width:10px"/><line x1="1459.06" x2="1459.06" y2="210.35" style="fill:none;stroke:#000;stroke-miterlimit:10;stroke-width:10px"/><line x1="1499.45" x2="1499.45" y2="210.35" style="fill:none;stroke:#000;stroke-miterlimit:10;stroke-width:10px"/><line x1="1539.84" x2="1539.84" y2="210.35" style="fill:none;stroke:#000;stroke-miterlimit:10;stroke-width:10px"/><line x1="1580.23" x2="1580.23" y2="210.35" style="fill:none;stroke:#000;stroke-miterlimit:10;stroke-width:10px"/><line x1="1620.62" x2="1620.62" y2="420.07" style="fill:none;stroke:#000;stroke-miterlimit:10;stroke-width:10px"/><line x1="1661.01" x2="1661.01" y2="210.35" style="fill:none;stroke:#000;stroke-miterlimit:10;stroke-width:10px"/><line x1="1701.4" x2="1701.4" y2="210.35" style="fill:none;stroke:#000;stroke-miterlimit:10;stroke-width:10px"/><line x1="1741.8" x2="1741.8" y2="210.35" style="fill:none;stroke:#000;stroke-miterlimit:10;stroke-width:10px"/><line x1="1782.19" x2="1782.19" y2="210.35" style="fill:none;stroke:#000;stroke-miterlimit:10;stroke-width:10px"/><line x1="1822.58" x2="1822.58" y2="343.06" style="fill:none;stroke:#000;stroke-miterlimit:10;stroke-width:10px"/><line x1="1862.97" x2="1862.97" y2="210.35" style="fill:none;stroke:#000;stroke-miterlimit:10;stroke-width:10px"/><line x1="1903.36" x2="1903.36" y2="210.35" style="fill:none;stroke:#000;stroke-miterlimit:10;stroke-width:10px"/><line x1="1943.75" x2="1943.75" y2="210.35" style="fill:none;stroke:#000;stroke-miterlimit:10;stroke-width:10px"/><line x1="1984.14" x2="1984.14" y2="210.35" style="fill:none;stroke:#000;stroke-miterlimit:10;stroke-width:10px"/><line x1="2024.53" x2="2024.53" y2="420.07" style="fill:none;stroke:#000;stroke-miterlimit:10;stroke-width:10px"/><line x1="2064.92" x2="2064.92" y2="210.35" style="fill:none;stroke:#000;stroke-miterlimit:10;stroke-width:10px"/><line x1="2105.31" x2="2105.31" y2="210.35" style="fill:none;stroke:#000;stroke-miterlimit:10;stroke-width:10px"/><line x1="2145.7" x2="2145.7" y2="210.35" style="fill:none;stroke:#000;stroke-miterlimit:10;stroke-width:10px"/><line x1="2186.09" x2="2186.09" y2="210.35" style="fill:none;stroke:#000;stroke-miterlimit:10;stroke-width:10px"/><line x1="2226.48" x2="2226.48" y2="343.06" style="fill:none;stroke:#000;stroke-miterlimit:10;stroke-width:10px"/><line x1="2266.87" x2="2266.87" y2="210.35" style="fill:none;stroke:#000;stroke-miterlimit:10;stroke-width:10px"/><line x1="2307.26" x2="2307.26" y2="210.35" style="fill:none;stroke:#000;stroke-miterlimit:10;stroke-width:10px"/><line x1="2347.65" x2="2347.65" y2="210.35" style="fill:none;stroke:#000;stroke-miterlimit:10;stroke-width:10px"/><line x1="2388.04" x2="2388.04" y2="210.35" style="fill:none;stroke:#000;stroke-miterlimit:10;stroke-width:10px"/><line x1="2428.44" x2="2428.44" y2="420.07" style="fill:none;stroke:#000;stroke-miterlimit:10;stroke-width:10px"/><line x1="2468.83" x2="2468.83" y2="210.35" style="fill:none;stroke:#000;stroke-miterlimit:10;stroke-width:10px"/><line x1="2509.22" x2="2509.22" y2="210.35" style="fill:none;stroke:#000;stroke-miterlimit:10;stroke-width:10px"/><line x1="2549.61" x2="2549.61" y2="210.35" style="fill:none;stroke:#000;stroke-miterlimit:10;stroke-width:10px"/><line x1="2590" x2="2590" y2="210.35" style="fill:none;stroke:#000;stroke-miterlimit:10;stroke-width:10px"/><line x1="2630.39" x2="2630.39" y2="343.06" style="fill:none;stroke:#000;stroke-miterlimit:10;stroke-width:10px"/><line x1="2670.78" x2="2670.78" y2="210.35" style="fill:none;stroke:#000;stroke-miterlimit:10;stroke-width:10px"/><line x1="2711.17" x2="2711.17" y2="210.35" style="fill:none;stroke:#000;stroke-miterlimit:10;stroke-width:10px"/><line x1="2751.56" x2="2751.56" y2="210.35" style="fill:none;stroke:#000;stroke-miterlimit:10;stroke-width:10px"/><line x1="2791.95" x2="2791.95" y2="210.35" style="fill:none;stroke:#000;stroke-miterlimit:10;stroke-width:10px"/><line x1="2832.34" x2="2832.34" y2="420.07" style="fill:none;stroke:#000;stroke-miterlimit:10;stroke-width:10px"/><line x1="2872.73" x2="2872.73" y2="210.35" style="fill:none;stroke:#000;stroke-miterlimit:10;stroke-width:10px"/><line x1="2913.12" x2="2913.12" y2="210.35" style="fill:none;stroke:#000;stroke-miterlimit:10;stroke-width:10px"/><line x1="2953.51" x2="2953.51" y2="210.35" style="fill:none;stroke:#000;stroke-miterlimit:10;stroke-width:10px"/><line x1="2993.9" x2="2993.9" y2="210.35" style="fill:none;stroke:#000;stroke-miterlimit:10;stroke-width:10px"/><line x1="3034.29" x2="3034.29" y2="343.06" style="fill:none;stroke:#000;stroke-miterlimit:10;stroke-width:10px"/><line x1="3074.68" x2="3074.68" y2="210.35" style="fill:none;stroke:#000;stroke-miterlimit:10;stroke-width:10px"/><line x1="3115.08" x2="3115.08" y2="210.35" style="fill:none;stroke:#000;stroke-miterlimit:10;stroke-width:10px"/><line x1="3155.47" x2="3155.47" y2="210.35" style="fill:none;stroke:#000;stroke-miterlimit:10;stroke-width:10px"/><line x1="3195.86" x2="3195.86" y2="210.35" style="fill:none;stroke:#000;stroke-miterlimit:10;stroke-width:10px"/><line x1="3236.25" x2="3236.25" y2="420.07" style="fill:none;stroke:#000;stroke-miterlimit:10;stroke-width:10px"/><line x1="3276.64" x2="3276.64" y2="210.35" style="fill:none;stroke:#000;stroke-miterlimit:10;stroke-width:10px"/><line x1="3317.03" x2="3317.03" y2="210.35" style="fill:none;stroke:#000;stroke-miterlimit:10;stroke-width:10px"/><line x1="3357.42" x2="3357.42" y2="210.35" style="fill:none;stroke:#000;stroke-miterlimit:10;stroke-width:10px"/><line x1="3397.81" x2="3397.81" y2="210.35" style="fill:none;stroke:#000;stroke-miterlimit:10;stroke-width:10px"/><line x1="3438.2" x2="3438.2" y2="343.06" style="fill:none;stroke:#000;stroke-miterlimit:10;stroke-width:10px"/><line x1="3478.59" x2="3478.59" y2="210.35" style="fill:none;stroke:#000;stroke-miterlimit:10;stroke-width:10px"/><line x1="3518.98" x2="3518.98" y2="210.35" style="fill:none;stroke:#000;stroke-miterlimit:10;stroke-width:10px"/><line x1="3559.37" x2="3559.37" y2="210.35" style="fill:none;stroke:#000;stroke-miterlimit:10;stroke-width:10px"/><line x1="3599.76" x2="3599.76" y2="210.35" style="fill:none;stroke:#000;stroke-miterlimit:10;stroke-width:10px"/><line x1="3640.15" x2="3640.15" y2="420.07" style="fill:none;stroke:#000;stroke-miterlimit:10;stroke-width:10px"/><line x1="3680.54" x2="3680.54" y2="210.35" style="fill:none;stroke:#000;stroke-miterlimit:10;stroke-width:10px"/><line x1="3720.93" x2="3720.93" y2="210.35" style="fill:none;stroke:#000;stroke-miterlimit:10;stroke-width:10px"/><line x1="3761.32" x2="3761.32" y2="210.35" style="fill:none;stroke:#000;stroke-miterlimit:10;stroke-width:10px"/><line x1="3801.72" x2="3801.72" y2="210.35" style="fill:none;stroke:#000;stroke-miterlimit:10;stroke-width:10px"/><line x1="3842.11" x2="3842.11" y2="343.06" style="fill:none;stroke:#000;stroke-miterlimit:10;stroke-width:10px"/><line x1="3882.5" x2="3882.5" y2="210.35" style="fill:none;stroke:#000;stroke-miterlimit:10;stroke-width:10px"/><line x1="3922.89" x2="3922.89" y2="210.35" style="fill:none;stroke:#000;stroke-miterlimit:10;stroke-width:10px"/><line x1="3963.28" x2="3963.28" y2="210.35" style="fill:none;stroke:#000;stroke-miterlimit:10;stroke-width:10px"/><line x1="4003.67" x2="4003.67" y2="210.35" style="fill:none;stroke:#000;stroke-miterlimit:10;stroke-width:10px"/><line x1="4044.06" x2="4044.06" y2="420.07" style="fill:none;stroke:#000;stroke-miterlimit:10;stroke-width:10px"/><line x1="4084.45" x2="4084.45" y2="210.35" style="fill:none;stroke:#000;stroke-miterlimit:10;stroke-width:10px"/><line x1="4124.84" x2="4124.84" y2="210.35" style="fill:none;stroke:#000;stroke-miterlimit:10;stroke-width:10px"/><line x1="4165.23" x2="4165.23" y2="210.35" style="fill:none;stroke:#000;stroke-miterlimit:10;stroke-width:10px"/><line x1="4205.62" x2="4205.62" y2="210.35" style="fill:none;stroke:#000;stroke-miterlimit:10;stroke-width:10px"/><line x1="4246.01" x2="4246.01" y2="343.06" style="fill:none;stroke:#000;stroke-miterlimit:10;stroke-width:10px"/><line x1="4286.4" x2="4286.4" y2="210.35" style="fill:none;stroke:#000;stroke-miterlimit:10;stroke-width:10px"/><line x1="4326.79" x2="4326.79" y2="210.35" style="fill:none;stroke:#000;stroke-miterlimit:10;stroke-width:10px"/><line x1="4367.18" x2="4367.18" y2="210.35" style="fill:none;stroke:#000;stroke-miterlimit:10;stroke-width:10px"/><line x1="4407.57" x2="4407.57" y2="210.35" style="fill:none;stroke:#000;stroke-miterlimit:10;stroke-width:10px"/><line x1="4447.96" x2="4447.96" y2="420.07" style="fill:none;stroke:#000;stroke-miterlimit:10;stroke-width:10px"/><line x1="4488.36" x2="4488.36" y2="210.35" style="fill:none;stroke:#000;stroke-miterlimit:10;stroke-width:10px"/><line x1="4528.75" x2="4528.75" y2="210.35" style="fill:none;stroke:#000;stroke-miterlimit:10;stroke-width:10px"/><line x1="4569.14" x2="4569.14" y2="210.35" style="fill:none;stroke:#000;stroke-miterlimit:10;stroke-width:10px"/><line x1="4609.53" x2="4609.53" y2="210.35" style="fill:none;stroke:#000;stroke-miterlimit:10;stroke-width:10px"/><line x1="4649.92" x2="4649.92" y2="343.06" style="fill:none;stroke:#000;stroke-miterlimit:10;stroke-width:10px"/><line x1="4690.31" x2="4690.31" y2="210.35" style="fill:none;stroke:#000;stroke-miterlimit:10;stroke-width:10px"/><line x1="4730.7" x2="4730.7" y2="210.35" style="fill:none;stroke:#000;stroke-miterlimit:10;stroke-width:10px"/><line x1="4771.09" x2="4771.09" y2="210.35" style="fill:none;stroke:#000;stroke-miterlimit:10;stroke-width:10px"/><line x1="4811.48" x2="4811.48" y2="210.35" style="fill:none;stroke:#000;stroke-miterlimit:10;stroke-width:10px"/><line x1="4851.87" x2="4851.87" y2="420.07" style="fill:none;stroke:#000;stroke-miterlimit:10;stroke-width:10px"/><line x1="4892.26" x2="4892.26" y2="210.35" style="fill:none;stroke:#000;stroke-miterlimit:10;stroke-width:10px"/><line x1="4932.65" x2="4932.65" y2="210.35" style="fill:none;stroke:#000;stroke-miterlimit:10;stroke-width:10px"/><line x1="4973.04" x2="4973.04" y2="210.35" style="fill:none;stroke:#000;stroke-miterlimit:10;stroke-width:10px"/><line x1="5013.43" x2="5013.43" y2="210.35" style="fill:none;stroke:#000;stroke-miterlimit:10;stroke-width:10px"/><line x1="5053.82" x2="5053.82" y2="343.06" style="fill:none;stroke:#000;stroke-miterlimit:10;stroke-width:10px"/><line x1="5094.21" x2="5094.21" y2="210.35" style="fill:none;stroke:#000;stroke-miterlimit:10;stroke-width:10px"/><line x1="5134.6" x2="5134.6" y2="210.35" style="fill:none;stroke:#000;stroke-miterlimit:10;stroke-width:10px"/><line x1="5175" x2="5175" y2="210.35" style="fill:none;stroke:#000;stroke-miterlimit:10;stroke-width:10px"/><line x1="5215.39" x2="5215.39" y2="210.35" style="fill:none;stroke:#000;stroke-miterlimit:10;stroke-width:10px"/><line x1="5255.78" x2="5255.78" y2="420.07" style="fill:none;stroke:#000;stroke-miterlimit:10;stroke-width:10px"/><line x1="5296.17" x2="5296.17" y2="210.35" style="fill:none;stroke:#000;stroke-miterlimit:10;stroke-width:10px"/><line x1="5336.56" x2="5336.56" y2="210.35" style="fill:none;stroke:#000;stroke-miterlimit:10;stroke-width:10px"/><line x1="5376.95" x2="5376.95" y2="210.35" style="fill:none;stroke:#000;stroke-miterlimit:10;stroke-width:10px"/><line x1="5417.34" x2="5417.34" y2="210.35" style="fill:none;stroke:#000;stroke-miterlimit:10;stroke-width:10px"/><line x1="5457.73" x2="5457.73" y2="343.06" style="fill:none;stroke:#000;stroke-miterlimit:10;stroke-width:10px"/><line x1="5498.12" x2="5498.12" y2="210.35" style="fill:none;stroke:#000;stroke-miterlimit:10;stroke-width:10px"/><line x1="5538.51" x2="5538.51" y2="210.35" style="fill:none;stroke:#000;stroke-miterlimit:10;stroke-width:10px"/><line x1="5578.9" x2="5578.9" y2="210.35" style="fill:none;stroke:#000;stroke-miterlimit:10;stroke-width:10px"/><line x1="5619.29" x2="5619.29" y2="210.35" style="fill:none;stroke:#000;stroke-miterlimit:10;stroke-width:10px"/><line x1="5659.68" x2="5659.68" y2="420.07" style="fill:none;stroke:#000;stroke-miterlimit:10;stroke-width:10px"/><line x1="5700.07" x2="5700.07" y2="210.35" style="fill:none;stroke:#000;stroke-miterlimit:10;stroke-width:10px"/><line x1="5740.46" x2="5740.46" y2="210.35" style="fill:none;stroke:#000;stroke-miterlimit:10;stroke-width:10px"/><line x1="5780.85" x2="5780.85" y2="210.35" style="fill:none;stroke:#000;stroke-miterlimit:10;stroke-width:10px"/><line x1="5821.24" x2="5821.24" y2="210.35" style="fill:none;stroke:#000;stroke-miterlimit:10;stroke-width:10px"/><line x1="5861.64" x2="5861.64" y2="343.06" style="fill:none;stroke:#000;stroke-miterlimit:10;stroke-width:10px"/><line x1="5902.03" x2="5902.03" y2="210.35" style="fill:none;stroke:#000;stroke-miterlimit:10;stroke-width:10px"/><line x1="5942.42" x2="5942.42" y2="210.35" style="fill:none;stroke:#000;stroke-miterlimit:10;stroke-width:10px"/><line x1="5982.81" x2="5982.81" y2="210.35" style="fill:none;stroke:#000;stroke-miterlimit:10;stroke-width:10px"/><line x1="6023.2" x2="6023.2" y2="210.35" style="fill:none;stroke:#000;stroke-miterlimit:10;stroke-width:10px"/><line x1="6063.59" x2="6063.59" y2="420.07" style="fill:none;stroke:#000;stroke-miterlimit:10;stroke-width:10px"/><line x1="6103.98" x2="6103.98" y2="210.35" style="fill:none;stroke:#000;stroke-miterlimit:10;stroke-width:10px"/><line x1="6144.37" x2="6144.37" y2="210.35" style="fill:none;stroke:#000;stroke-miterlimit:10;stroke-width:10px"/><line x1="6184.76" x2="6184.76" y2="210.35" style="fill:none;stroke:#000;stroke-miterlimit:10;stroke-width:10px"/><line x1="6225.15" x2="6225.15" y2="210.35" style="fill:none;stroke:#000;stroke-miterlimit:10;stroke-width:10px"/><line x1="6265.54" x2="6265.54" y2="343.06" style="fill:none;stroke:#000;stroke-miterlimit:10;stroke-width:10px"/><line x1="6305.93" x2="6305.93" y2="210.35" style="fill:none;stroke:#000;stroke-miterlimit:10;stroke-width:10px"/><line x1="6346.32" x2="6346.32" y2="210.35" style="fill:none;stroke:#000;stroke-miterlimit:10;stroke-width:10px"/><line x1="6386.71" x2="6386.71" y2="210.35" style="fill:none;stroke:#000;stroke-miterlimit:10;stroke-width:10px"/><line x1="6427.1" x2="6427.1" y2="210.35" style="fill:none;stroke:#000;stroke-miterlimit:10;stroke-width:10px"/><line x1="6467.49" x2="6467.49" y2="420.07" style="fill:none;stroke:#000;stroke-miterlimit:10;stroke-width:10px"/><line x1="6507.88" x2="6507.88" y2="210.35" style="fill:none;stroke:#000;stroke-miterlimit:10;stroke-width:10px"/><line x1="6548.28" x2="6548.28" y2="210.35" style="fill:none;stroke:#000;stroke-miterlimit:10;stroke-width:10px"/><line x1="6588.67" x2="6588.67" y2="210.35" style="fill:none;stroke:#000;stroke-miterlimit:10;stroke-width:10px"/><line x1="6629.06" x2="6629.06" y2="210.35" style="fill:none;stroke:#000;stroke-miterlimit:10;stroke-width:10px"/><line x1="6669.45" x2="6669.45" y2="343.06" style="fill:none;stroke:#000;stroke-miterlimit:10;stroke-width:10px"/><line x1="6709.84" x2="6709.84" y2="210.35" style="fill:none;stroke:#000;stroke-miterlimit:10;stroke-width:10px"/><line x1="6750.23" x2="6750.23" y2="210.35" style="fill:none;stroke:#000;stroke-miterlimit:10;stroke-width:10px"/><line x1="6790.62" x2="6790.62" y2="210.35" style="fill:none;stroke:#000;stroke-miterlimit:10;stroke-width:10px"/><line x1="6831.01" x2="6831.01" y2="210.35" style="fill:none;stroke:#000;stroke-miterlimit:10;stroke-width:10px"/><line x1="6871.4" x2="6871.4" y2="420.07" style="fill:none;stroke:#000;stroke-miterlimit:10;stroke-width:10px"/><line x1="6911.79" x2="6911.79" y2="210.35" style="fill:none;stroke:#000;stroke-miterlimit:10;stroke-width:10px"/><line x1="6952.18" x2="6952.18" y2="210.35" style="fill:none;stroke:#000;stroke-miterlimit:10;stroke-width:10px"/><line x1="6992.57" x2="6992.57" y2="210.35" style="fill:none;stroke:#000;stroke-miterlimit:10;stroke-width:10px"/><line x1="7032.96" x2="7032.96" y2="210.35" style="fill:none;stroke:#000;stroke-miterlimit:10;stroke-width:10px"/><line x1="7073.35" x2="7073.35" y2="343.06" style="fill:none;stroke:#000;stroke-miterlimit:10;stroke-width:10px"/><line x1="7113.74" x2="7113.74" y2="210.35" style="fill:none;stroke:#000;stroke-miterlimit:10;stroke-width:10px"/><line x1="7154.13" x2="7154.13" y2="210.35" style="fill:none;stroke:#000;stroke-miterlimit:10;stroke-width:10px"/><line x1="7194.52" x2="7194.52" y2="210.35" style="fill:none;stroke:#000;stroke-miterlimit:10;stroke-width:10px"/><line x1="7234.92" x2="7234.92" y2="210.35" style="fill:none;stroke:#000;stroke-miterlimit:10;stroke-width:10px"/><line x1="7275.31" x2="7275.31" y2="420.07" style="fill:none;stroke:#000;stroke-miterlimit:10;stroke-width:10px"/><line x1="7315.7" x2="7315.7" y2="210.35" style="fill:none;stroke:#000;stroke-miterlimit:10;stroke-width:10px"/><line x1="7356.09" x2="7356.09" y2="210.35" style="fill:none;stroke:#000;stroke-miterlimit:10;stroke-width:10px"/><line x1="7396.48" x2="7396.48" y2="210.35" style="fill:none;stroke:#000;stroke-miterlimit:10;stroke-width:10px"/><line x1="7436.87" x2="7436.87" y2="210.35" style="fill:none;stroke:#000;stroke-miterlimit:10;stroke-width:10px"/><line x1="7477.26" x2="7477.26" y2="343.06" style="fill:none;stroke:#000;stroke-miterlimit:10;stroke-width:10px"/><line x1="7517.65" x2="7517.65" y2="210.35" style="fill:none;stroke:#000;stroke-miterlimit:10;stroke-width:10px"/><line x1="7558.04" x2="7558.04" y2="210.35" style="fill:none;stroke:#000;stroke-miterlimit:10;stroke-width:10px"/><line x1="7598.43" x2="7598.43" y2="210.35" style="fill:none;stroke:#000;stroke-miterlimit:10;stroke-width:10px"/><line x1="7638.82" x2="7638.82" y2="210.35" style="fill:none;stroke:#000;stroke-miterlimit:10;stroke-width:10px"/><line x1="7679.21" x2="7679.21" y2="420.07" style="fill:none;stroke:#000;stroke-miterlimit:10;stroke-width:10px"/><line x1="7719.6" x2="7719.6" y2="210.35" style="fill:none;stroke:#000;stroke-miterlimit:10;stroke-width:10px"/><line x1="7759.99" x2="7759.99" y2="210.35" style="fill:none;stroke:#000;stroke-miterlimit:10;stroke-width:10px"/><line x1="7800.38" x2="7800.38" y2="210.35" style="fill:none;stroke:#000;stroke-miterlimit:10;stroke-width:10px"/><line x1="7840.77" x2="7840.77" y2="210.35" style="fill:none;stroke:#000;stroke-miterlimit:10;stroke-width:10px"/><line x1="7881.16" x2="7881.16" y2="343.06" style="fill:none;stroke:#000;stroke-miterlimit:10;stroke-width:10px"/><line x1="7921.56" x2="7921.56" y2="210.35" style="fill:none;stroke:#000;stroke-miterlimit:10;stroke-width:10px"/><line x1="7961.95" x2="7961.95" y2="210.35" style="fill:none;stroke:#000;stroke-miterlimit:10;stroke-width:10px"/><line x1="8002.34" x2="8002.34" y2="210.35" style="fill:none;stroke:#000;stroke-miterlimit:10;stroke-width:10px"/><line x1="8042.73" x2="8042.73" y2="210.35" style="fill:none;stroke:#000;stroke-miterlimit:10;stroke-width:10px"/><line x1="8083.12" x2="8083.12" y2="420.07" style="fill:none;stroke:#000;stroke-miterlimit:10;stroke-width:10px"/></svg>